<?xml version="1.0" encoding="UTF-8"?>
<svg width="24px" height="16px" viewBox="0 0 24 16" version="1.1" xmlns="http://www.w3.org/2000/svg" xmlns:xlink="http://www.w3.org/1999/xlink">
    <!-- Generator: Sketch 54.1 (76490) - https://sketchapp.com -->
    <title>france</title>
    <desc>Created with Sketch.</desc>
    <g stroke="none" stroke-width="1" fill="none" fill-rule="evenodd">
        <rect fill="#FFFFFF" x="0" y="0" width="24" height="16"></rect>
        <g transform="translate(2.500000, 1.002714)" fill="#BA9509" fill-rule="nonzero">
            <path d="M3.50691688,0.148180297 C3.30124808,0.442082576 2.80654398,0.641631612 2.4958428,0.786198928 C2.08701719,0.976366468 1.94516852,1.25896481 1.95270448,1.56440172 C1.966489,2.12167796 2.3586256,2.34875631 2.71438552,2.89626657 C3.07014543,3.44439201 3.3493683,4.58339792 3.25304936,5.32084503 C3.12014964,6.33896804 2.69790061,6.46123508 2.78943108,6.95337914 C2.86465719,7.35839832 3.2299705,7.45221328 3.50699538,7.82924177 C3.78394175,7.45213638 4.14927861,7.35832142 4.22455967,6.95337914 C4.31601164,6.46092749 3.89384111,6.33881425 3.76094139,5.32084503 C3.66470095,4.58309033 3.94164733,3.44454581 4.29740725,2.89626657 C4.65316716,2.34814113 5.04754885,2.12113968 5.06128627,1.56440172 C5.06885363,1.25858033 4.92477557,0.97598198 4.51594997,0.786198928 C4.20509179,0.641631612 3.71289967,0.442082576 3.50723087,0.148180297 L3.50691688,0.148180297 Z M1.34346955,2.63120086 C0.753624,2.65393176 0.226421087,3.21869783 0.26174588,3.78850837 C0.329954131,4.88429787 1.54678336,4.94350895 1.54678336,4.94350895 C1.54678336,4.94350895 1.23906516,3.94153441 2.03913247,3.89462693 C2.52371013,3.86618254 2.74711983,4.58185997 2.68157271,5.17497045 C2.58297729,6.06775053 2.26301316,6.21001092 2.01259963,6.24999763 C1.60314602,6.31572962 1.4203206,6.01584471 1.33263661,5.92995019 C1.3175804,6.42878433 1.57480769,6.76813304 2.03913247,6.74737071 C2.74052586,6.71622722 3.01095678,5.64850531 3.06826145,5.04716679 C3.16387389,4.03596455 2.66469531,2.74024153 1.46059086,2.63566091 C1.42085439,2.63219822 1.38289986,2.62982055 1.34354805,2.63133543 L1.34346955,2.63120086 Z M5.61148955,2.63120086 C5.59170767,2.63166224 5.57174523,2.63379461 5.551877,2.63552634 C4.34847905,2.74041455 3.84922197,4.03582998 3.94420642,5.04703222 C4.00104793,5.64844764 4.271628,6.71570816 4.97333539,6.74723614 C5.43766017,6.76785236 5.69490316,6.42849597 5.67983125,5.92981562 C5.59214727,6.01571014 5.40924334,6.31561043 4.99986823,6.24986306 C4.7494547,6.20966873 4.42949057,6.06800045 4.33089515,5.17483588 C4.26539513,4.5817254 4.48883623,3.86604028 4.97333539,3.89449236 C5.7732457,3.94145367 5.46568451,4.94337438 5.46568451,4.94337438 C5.46568451,4.94337438 6.68478237,4.88405564 6.75307697,3.7883738 C6.78972055,3.19987716 6.22493206,2.61645576 5.61169365,2.63106629 L5.61148955,2.63120086 Z"></path>
            <polygon points="2.28203905 4.90352225 4.7327947 4.90352225 5.01539304 5.19734763 4.7327947 5.49117301 2.28203905 5.49117301 1.99944071 5.19734763"></polygon>
        </g>
        <g transform="translate(8.500000, 7.500000)" fill="#BA9509" fill-rule="nonzero">
            <path d="M3.50691688,0.148180297 C3.30124808,0.442082576 2.80654398,0.641631612 2.4958428,0.786198928 C2.08701719,0.976366468 1.94516852,1.25896481 1.95270448,1.56440172 C1.966489,2.12167796 2.3586256,2.34875631 2.71438552,2.89626657 C3.07014543,3.44439201 3.3493683,4.58339792 3.25304936,5.32084503 C3.12014964,6.33896804 2.69790061,6.46123508 2.78943108,6.95337914 C2.86465719,7.35839832 3.2299705,7.45221328 3.50699538,7.82924177 C3.78394175,7.45213638 4.14927861,7.35832142 4.22455967,6.95337914 C4.31601164,6.46092749 3.89384111,6.33881425 3.76094139,5.32084503 C3.66470095,4.58309033 3.94164733,3.44454581 4.29740725,2.89626657 C4.65316716,2.34814113 5.04754885,2.12113968 5.06128627,1.56440172 C5.06885363,1.25858033 4.92477557,0.97598198 4.51594997,0.786198928 C4.20509179,0.641631612 3.71289967,0.442082576 3.50723087,0.148180297 L3.50691688,0.148180297 Z M1.34346955,2.63120086 C0.753624,2.65393176 0.226421087,3.21869783 0.26174588,3.78850837 C0.329954131,4.88429787 1.54678336,4.94350895 1.54678336,4.94350895 C1.54678336,4.94350895 1.23906516,3.94153441 2.03913247,3.89462693 C2.52371013,3.86618254 2.74711983,4.58185997 2.68157271,5.17497045 C2.58297729,6.06775053 2.26301316,6.21001092 2.01259963,6.24999763 C1.60314602,6.31572962 1.4203206,6.01584471 1.33263661,5.92995019 C1.3175804,6.42878433 1.57480769,6.76813304 2.03913247,6.74737071 C2.74052586,6.71622722 3.01095678,5.64850531 3.06826145,5.04716679 C3.16387389,4.03596455 2.66469531,2.74024153 1.46059086,2.63566091 C1.42085439,2.63219822 1.38289986,2.62982055 1.34354805,2.63133543 L1.34346955,2.63120086 Z M5.61148955,2.63120086 C5.59170767,2.63166224 5.57174523,2.63379461 5.551877,2.63552634 C4.34847905,2.74041455 3.84922197,4.03582998 3.94420642,5.04703222 C4.00104793,5.64844764 4.271628,6.71570816 4.97333539,6.74723614 C5.43766017,6.76785236 5.69490316,6.42849597 5.67983125,5.92981562 C5.59214727,6.01571014 5.40924334,6.31561043 4.99986823,6.24986306 C4.7494547,6.20966873 4.42949057,6.06800045 4.33089515,5.17483588 C4.26539513,4.5817254 4.48883623,3.86604028 4.97333539,3.89449236 C5.7732457,3.94145367 5.46568451,4.94337438 5.46568451,4.94337438 C5.46568451,4.94337438 6.68478237,4.88405564 6.75307697,3.7883738 C6.78972055,3.19987716 6.22493206,2.61645576 5.61169365,2.63106629 L5.61148955,2.63120086 Z"></path>
            <polygon points="2.28203905 4.90352225 4.7327947 4.90352225 5.01539304 5.19734763 4.7327947 5.49117301 2.28203905 5.49117301 1.99944071 5.19734763"></polygon>
        </g>
        <g transform="translate(14.500000, 1.002714)" fill="#BA9509" fill-rule="nonzero">
            <path d="M3.50691688,0.148180297 C3.30124808,0.442082576 2.80654398,0.641631612 2.4958428,0.786198928 C2.08701719,0.976366468 1.94516852,1.25896481 1.95270448,1.56440172 C1.966489,2.12167796 2.3586256,2.34875631 2.71438552,2.89626657 C3.07014543,3.44439201 3.3493683,4.58339792 3.25304936,5.32084503 C3.12014964,6.33896804 2.69790061,6.46123508 2.78943108,6.95337914 C2.86465719,7.35839832 3.2299705,7.45221328 3.50699538,7.82924177 C3.78394175,7.45213638 4.14927861,7.35832142 4.22455967,6.95337914 C4.31601164,6.46092749 3.89384111,6.33881425 3.76094139,5.32084503 C3.66470095,4.58309033 3.94164733,3.44454581 4.29740725,2.89626657 C4.65316716,2.34814113 5.04754885,2.12113968 5.06128627,1.56440172 C5.06885363,1.25858033 4.92477557,0.97598198 4.51594997,0.786198928 C4.20509179,0.641631612 3.71289967,0.442082576 3.50723087,0.148180297 L3.50691688,0.148180297 Z M1.34346955,2.63120086 C0.753624,2.65393176 0.226421087,3.21869783 0.26174588,3.78850837 C0.329954131,4.88429787 1.54678336,4.94350895 1.54678336,4.94350895 C1.54678336,4.94350895 1.23906516,3.94153441 2.03913247,3.89462693 C2.52371013,3.86618254 2.74711983,4.58185997 2.68157271,5.17497045 C2.58297729,6.06775053 2.26301316,6.21001092 2.01259963,6.24999763 C1.60314602,6.31572962 1.4203206,6.01584471 1.33263661,5.92995019 C1.3175804,6.42878433 1.57480769,6.76813304 2.03913247,6.74737071 C2.74052586,6.71622722 3.01095678,5.64850531 3.06826145,5.04716679 C3.16387389,4.03596455 2.66469531,2.74024153 1.46059086,2.63566091 C1.42085439,2.63219822 1.38289986,2.62982055 1.34354805,2.63133543 L1.34346955,2.63120086 Z M5.61148955,2.63120086 C5.59170767,2.63166224 5.57174523,2.63379461 5.551877,2.63552634 C4.34847905,2.74041455 3.84922197,4.03582998 3.94420642,5.04703222 C4.00104793,5.64844764 4.271628,6.71570816 4.97333539,6.74723614 C5.43766017,6.76785236 5.69490316,6.42849597 5.67983125,5.92981562 C5.59214727,6.01571014 5.40924334,6.31561043 4.99986823,6.24986306 C4.7494547,6.20966873 4.42949057,6.06800045 4.33089515,5.17483588 C4.26539513,4.5817254 4.48883623,3.86604028 4.97333539,3.89449236 C5.7732457,3.94145367 5.46568451,4.94337438 5.46568451,4.94337438 C5.46568451,4.94337438 6.68478237,4.88405564 6.75307697,3.7883738 C6.78972055,3.19987716 6.22493206,2.61645576 5.61169365,2.63106629 L5.61148955,2.63120086 Z"></path>
            <polygon points="2.28203905 4.90352225 4.7327947 4.90352225 5.01539304 5.19734763 4.7327947 5.49117301 2.28203905 5.49117301 1.99944071 5.19734763"></polygon>
        </g>
    </g>
</svg>