<?xml version="1.0" encoding="UTF-8"?>
<svg width="24px" height="16px" viewBox="0 0 24 16" version="1.1" xmlns="http://www.w3.org/2000/svg" xmlns:xlink="http://www.w3.org/1999/xlink">
    <!-- Generator: Sketch 54.1 (76490) - https://sketchapp.com -->
    <title>portugal</title>
    <desc>Created with Sketch.</desc>
    <g stroke="none" stroke-width="1" fill="none" fill-rule="evenodd">
        <rect fill="#FFFFFF" x="0" y="0" width="24" height="16"></rect>
        <rect fill="#76A36F" x="10" y="6" width="4" height="1"></rect>
        <path d="M9.5,5.00154697 C9.82887486,4.33741149 10.6622082,4.0035625 12,4 C13.3377918,3.9964375 14.1912791,4.33028649 14.560462,5.00154697 L14,6.5 L13,6.5 L13,7.5 L11.0034492,7.5 L11,6.5 L10,6.5 L9.5,5.00154697 Z" fill="#CF1E26"></path>
        <rect fill="#DBB546" x="10" y="6" width="4" height="1"></rect>
        <path d="M8.75,7.25 L8.75,11.8179379 C8.75,13.6128633 10.2050746,15.0679379 12,15.0679379 C13.7949254,15.0679379 15.25,13.6128633 15.25,11.8179379 L15.25,7.25 L8.75,7.25 Z" stroke="#DBB546" stroke-width="0.5" fill="#CF1E26"></path>
        <path d="M10,8.68542697 L14,8.68542697 L14,11.4385343 C14,12.5431038 13.1045695,13.4385343 12,13.4385343 L12,13.4385343 C10.8954305,13.4385343 10,12.5431038 10,11.4385343 L10,8.68542697 Z" fill="#FFFFFF"></path>
        <path d="M11.585603,9.22824451 L12.414397,9.22824451 L12.414397,9.79868416 C12.414397,10.0275493 12.2288651,10.2130811 12,10.2130811 L12,10.2130811 C11.7711349,10.2130811 11.585603,10.0275493 11.585603,9.79868416 L11.585603,9.22824451 Z" fill="#465695"></path>
        <path d="M11.585603,10.5965692 L12.414397,10.5965692 L12.414397,11.1670088 C12.414397,11.3958739 12.2288651,11.5814058 12,11.5814058 L12,11.5814058 C11.7711349,11.5814058 11.585603,11.3958739 11.585603,11.1670088 L11.585603,10.5965692 Z" fill="#465695"></path>
        <path d="M11.585603,12.0116585 L12.414397,12.0116585 L12.414397,12.5820982 C12.414397,12.8109633 12.2288651,12.9964951 12,12.9964951 L12,12.9964951 C11.7711349,12.9964951 11.585603,12.8109633 11.585603,12.5820982 L11.585603,12.0116585 Z" fill="#465695"></path>
        <path d="M12.7506326,10.5826602 L13.5794265,10.5826602 L13.5794265,11.1530998 C13.5794265,11.381965 13.3938947,11.5674968 13.1650295,11.5674968 L13.1650295,11.5674968 C12.9361644,11.5674968 12.7506326,11.381965 12.7506326,11.1530998 L12.7506326,10.5826602 Z" fill="#465695"></path>
        <path d="M10.4704603,10.598866 L11.2992542,10.598866 L11.2992542,11.1693057 C11.2992542,11.3981708 11.1137223,11.5837026 10.8848572,11.5837026 L10.8848572,11.5837026 C10.6559921,11.5837026 10.4704603,11.3981708 10.4704603,11.1693057 L10.4704603,10.598866 Z" fill="#465695"></path>
        <path d="M8.5,4.5 C9.5,4.83333333 10,5.66666667 10,7" stroke="#DBB546" stroke-width="0.5"></path>
        <path d="M8.5,4.5 C9.5,3.50590319 10.6666667,3.00737898 12,3.00442739 C13.3333333,3.0014758 14.5,3.5 15.5,4.5" stroke="#DBB546" stroke-width="0.5"></path>
        <path d="M9.5,3.5 C10.6666667,4.5 11.25,5.66666667 11.25,7" stroke="#DBB546" stroke-width="0.5"></path>
        <path d="M14,4.5 C15,4.83333333 15.5,5.66666667 15.5,7" stroke="#DBB546" stroke-width="0.5" transform="translate(14.750000, 5.750000) scale(-1, 1) translate(-14.750000, -5.750000) "></path>
        <path d="M12.75,3.5 C13.9166667,4.5 14.5,5.66666667 14.5,7" stroke="#DBB546" stroke-width="0.5" transform="translate(13.625000, 5.250000) scale(-1, 1) translate(-13.625000, -5.250000) "></path>
        <path d="M12,1 L12,6" stroke="#DBB546" stroke-width="0.5"></path>
    </g>
</svg>