<?xml version="1.0" encoding="UTF-8"?>
<svg width="50px" height="35px" viewBox="0 0 50 35" version="1.1" xmlns="http://www.w3.org/2000/svg" xmlns:xlink="http://www.w3.org/1999/xlink">
    <!-- Generator: Sketch 54.1 (76490) - https://sketchapp.com -->
    <title>ship_side_light</title>
    <desc>Created with Sketch.</desc>
    <g stroke="none" stroke-width="1" fill="none" fill-rule="evenodd">
        <rect fill="#FFFFFF" x="23.5" y="3" width="1" height="29"></rect>
        <rect fill="#FFFFFF" x="33" y="0.372759811" width="1" height="31.6272402"></rect>
        <rect fill="#FFFFFF" transform="translate(23.787540, 22.326216) rotate(-6.000000) translate(-23.787540, -22.326216) " x="18.2875403" y="22.0762164" width="11" height="1"></rect>
        <rect fill="#FFFFFF" transform="translate(24.252764, 13.762469) rotate(-8.000000) translate(-24.252764, -13.762469) " x="19.0132354" y="13.5124685" width="10.4790571" height="1"></rect>
        <rect fill="#FFFFFF" transform="translate(23.806955, 5.600410) rotate(-14.000000) translate(-23.806955, -5.600410) " x="19.5859484" y="5.3504097" width="8.44201263" height="1"></rect>
        <rect fill="#FFFFFF" transform="translate(35.052491, 21.055885) rotate(-6.000000) translate(-35.052491, -21.055885) " x="29.552491" y="20.8058845" width="11" height="1"></rect>
        <rect fill="#FFFFFF" transform="translate(39.237774, 18.946033) rotate(-10.000000) translate(-39.237774, -18.946033) " x="33.0365748" y="18.6689186" width="12.4023986" height="1"></rect>
        <rect fill="#FFFFFF" transform="translate(33.848008, 9.971175) rotate(-11.000000) translate(-33.848008, -9.971175) " x="28.348008" y="9.7211746" width="11" height="1"></rect>
        <rect fill="#FFFFFF" transform="translate(33.479661, 2.116181) rotate(-17.000000) translate(-33.479661, -2.116181) " x="29.1716501" y="1.86618067" width="8.61602115" height="1"></rect>
        <path d="M23.533804,2.9959968 C23.3812278,3.21226762 23.0798237,3.31574384 22.6295918,3.30642546 C21.9542439,3.2924479 21.50059,2.80403184 20.8727557,2.80763323 C20.2449213,2.81123463 19.1767515,3.36645236 18.5814403,3.98634983 C17.986129,4.6062473 19.9704516,3.84653573 20.7951854,3.87136212 C21.6199192,3.8961885 22.1688583,4.43076675 22.6685646,4.4120731 C23.0017021,4.39961067 23.2911929,4.33140434 23.537037,4.20745414 L23.533804,2.9959968 Z" fill="#FFFFFF"></path>
        <path d="M33.0784302,0.368327032 C32.925854,0.584597848 32.6244499,0.68807407 32.174218,0.678755697 C31.4988701,0.664778137 31.0452162,0.176362068 30.4173818,0.179963466 C29.7895474,0.183564865 28.7213777,0.738782595 28.1260664,1.35868006 C27.5307552,1.97857753 29.5150778,1.21886597 30.3398116,1.24369235 C31.1645454,1.26851873 31.7134844,1.80309698 32.2131908,1.78440333 C32.5463283,1.7719409 32.8358191,1.70373458 33.0816632,1.57978437 L33.0784302,0.368327032 Z" fill="#FFFFFF"></path>
        <path d="M24,5.00820625 L0,24 C1.60307799,23.7549476 3.32718787,24.017013 5.17232963,24.7861963 C7.01747138,25.5553796 8.73793245,26.5560412 10.3337128,27.7881813 C10.5205125,23.5225334 12.0073213,19.3286473 14.7941394,15.2065229 C17.5809574,11.0843985 20.6495776,7.68495965 24,5.00820625 Z" fill="#FFFFFF"></path>
        <path d="M24,5.00820625 L8.37759206,26.8453294 C10.1760366,26.4832868 11.8688661,26.3605324 13.4560803,26.4770663 C15.0432945,26.5936003 16.9653225,27.7565828 19.2221644,29.9660139 C16.9932301,25.7028987 16.3071197,21.8026079 17.163833,18.2651413 C18.0205463,14.7276748 20.2992687,10.3086964 24,5.00820625 Z" fill="#FFFFFF"></path>
        <path d="M18.7074633,22.9426977 C18.0015772,24.3818009 17.623971,25.72134 17.5746447,26.9613152 C17.5253184,28.2012904 17.5253184,29.556389 17.5746447,31.0266109 C19.3052945,29.8038583 21.6448257,29.1755062 24.593238,29.1415546 C27.5416504,29.1076029 30.3714593,29.4500089 33.0826646,30.1687724 C31.0831534,28.3796542 29.8167795,26.7920319 29.2835429,25.4059057 C28.7503062,24.0197795 28.7503062,22.8442848 29.2835429,21.8794216 L18.7074633,22.9426977 Z" fill="#FFFFFF"></path>
        <path d="M33.25,20.2323475 C32.0916123,23.395073 32.0916123,26.0388577 33.25,28.1637017 L47.5080511,27.1058959 C46.201682,25.9491069 45.3479498,24.561188 44.9468544,22.9421392 C44.5457591,21.3230905 44.2694127,19.7590202 44.1178155,18.2499283 L33.25,20.2323475 Z" fill="#FFFFFF"></path>
        <path d="M18.437984,14.739237 C17.4625085,17.6950175 17.2282703,20.2240106 17.7352694,22.3262164 C18.6318866,21.3590642 20.6367968,20.8093933 23.75,20.6772037 C26.8632032,20.5450141 29.077514,20.9167071 30.3929324,21.7922825 C28.0110559,19.3443423 27.2097646,16.5200039 27.9890586,13.3192674 L18.437984,14.739237 Z" fill="#FFFFFF"></path>
        <path d="M20.0447126,6.7227688 C19.1424087,8.7251797 18.9027128,11.0717463 19.3256248,13.7624685 C19.8233411,13.432969 21.0291624,13.1903944 22.9430885,13.0347447 C24.8570146,12.879095 26.3759893,12.9212549 27.5000126,13.1612243 C26.115616,10.1989457 26.0699005,7.39682753 27.3628663,4.75486979 L20.0447126,6.7227688 Z" fill="#FFFFFF"></path>
        <path d="M29.6524531,3.33934599 C28.9292454,5.43767589 28.663518,7.8889658 28.8552707,10.6932157 C30.0671709,9.80749744 31.4769818,9.16812152 33.0847033,8.77508796 C34.6924247,8.3820544 36.3960671,8.34913119 38.1956302,8.67631833 C36.7661233,5.5222485 36.4086612,2.95899185 37.1232439,0.986548387 L29.6524531,3.33934599 Z" fill="#FFFFFF"></path>
        <path d="M28.8000748,11.0644649 C27.611735,13.6925592 27.6626132,16.793571 28.9527095,20.3675005 C30.3819926,19.6935481 32.0816406,19.2788485 34.0516535,19.1234018 C36.0216665,18.9679552 38.2616927,19.1053163 40.7717324,19.5354851 C37.8787124,15.8299135 37.1369758,12.4043082 38.5465227,9.25866915 L28.8000748,11.0644649 Z" fill="#FFFFFF"></path>
        <path d="M0,24 C3.72554633,25.7392176 7.10138382,27.6772984 10.1275125,29.8142424 C13.1536411,31.9511863 15.0210928,33.6797722 15.7298674,35 L42.6112911,35 C43.146344,33.2061431 43.7085384,32.0184116 44.2978743,31.4368054 C45.1818781,30.5643962 44.086526,29.4953382 44.0103366,29.2751887 C43.9341472,29.0550392 36.3437342,29.8212316 35.7685813,29.8142424 L35.0481343,30.5 L31,30.5 L30,31 L21,30.9980396 L21,30 L15.9970936,30 L0.99628558,24 L0,24 Z" fill="#FFFFFF"></path>
    </g>
</svg>