<?xml version="1.0" encoding="UTF-8"?>
<svg width="24px" height="16px" viewBox="0 0 24 16" version="1.1" xmlns="http://www.w3.org/2000/svg" xmlns:xlink="http://www.w3.org/1999/xlink">
    <!-- Generator: Sketch 54.1 (76490) - https://sketchapp.com -->
    <title>spain</title>
    <desc>Created with Sketch.</desc>
    <g stroke="none" stroke-width="1" fill="none" fill-rule="evenodd">
        <rect fill="#FFFFFF" x="0" y="0" width="24" height="16"></rect>
        <polygon fill="#D9171B" points="1 -5.05984143e-14 0 6.21724894e-15 0 2 23 16 24 16 24 14"></polygon>
        <polygon fill="#D9171B" transform="translate(12.000000, 8.000000) scale(1, -1) translate(-12.000000, -8.000000) " points="1 -5.05984143e-14 0 6.21724894e-15 0 2 23 16 24 16 24 14"></polygon>
        <polygon fill="#D9171B" points="0.830947672 12.7764267 2.16013402 11.966818 4.80575289 12.3716224 4.23460617 14.7810446 2.81835028 15.6747841 3.30480126 13.3822695"></polygon>
        <polygon fill="#D9171B" points="3.55501442 11.0976584 4.88420077 10.2880497 7.52981964 10.692854 6.95867292 13.1022762 5.54241703 13.9960157 6.02886801 11.7035012"></polygon>
        <polygon fill="#D9171B" points="6.26128978 9.52391933 7.59047613 8.71431064 10.236095 9.11911499 9.66494828 11.5285372 8.24869238 12.4222767 8.73514336 10.1297622"></polygon>
        <polygon fill="#D9171B" transform="translate(15.791376, 10.564968) scale(-1, 1) translate(-15.791376, -10.564968) " points="13.8039736 9.52059338 15.1331599 8.71098469 17.7787788 9.11578904 17.2076321 11.5252112 15.7913762 12.4189507 16.2778272 10.1264362"></polygon>
        <polygon fill="#D9171B" transform="translate(18.528715, 12.214478) scale(-1, 1) translate(-18.528715, -12.214478) " points="16.5413123 11.1701035 17.8704987 10.3604948 20.5161176 10.7652991 19.9449708 13.1747213 18.5287149 14.0684608 19.0151659 11.7759463"></polygon>
        <polygon fill="#D9171B" transform="translate(21.232772, 13.789474) scale(-1, 1) translate(-21.232772, -13.789474) " points="19.2453691 12.7450996 20.5745555 11.9354909 23.2201744 12.3402952 22.6490276 14.7497174 21.2327718 15.6434569 21.7192227 13.3509424"></polygon>
        <polygon fill="#D9171B" transform="translate(15.543488, 5.597552) scale(-1, -1) translate(-15.543488, -5.597552) " points="13.5560857 4.55317758 14.885272 3.74356889 17.5308909 4.14837324 16.9597442 6.55779544 15.5434883 7.45153494 16.0299393 5.15902042"></polygon>
        <polygon fill="#D9171B" transform="translate(8.544583, 5.645839) scale(1, -1) translate(-8.544583, -5.645839) " points="6.55718062 4.60146483 7.88636697 3.79185614 10.5319858 4.19666049 9.96083912 6.60608269 8.54458323 7.49982219 9.03103421 5.20730767"></polygon>
        <polygon fill="#D9171B" transform="translate(5.780723, 4.055190) scale(1, -1) translate(-5.780723, -4.055190) " points="3.79332032 3.01081545 5.12250667 2.20120676 7.76812554 2.60601111 7.19697882 5.01543331 5.78072293 5.90917281 6.26717391 3.61665829"></polygon>
        <polygon fill="#D9171B" transform="translate(2.923345, 2.348763) scale(1, -1) translate(-2.923345, -2.348763) " points="0.935942483 1.30438824 2.26512883 0.494779549 4.9107477 0.899583893 4.33960098 3.30900609 2.92334509 4.20274559 3.40979607 1.91023108"></polygon>
        <polygon fill="#D9171B" transform="translate(18.274097, 4.016127) scale(-1, -1) translate(-18.274097, -4.016127) " points="16.286694 2.97175219 17.6158803 2.16214351 20.2614992 2.56694785 19.6903525 4.97637005 18.2740966 5.87010955 18.7605475 3.57759503"></polygon>
        <polygon fill="#D9171B" transform="translate(20.987881, 2.297490) scale(-1, -1) translate(-20.987881, -2.297490) " points="19.0004779 1.25311549 20.3296643 0.4435068 22.9752832 0.848311144 22.4041364 3.25773334 20.9878806 4.15147284 21.4743315 1.85895833"></polygon>
    </g>
</svg>